<svg width="1200" height="630" viewBox="0 0 1200 630" xmlns="http://www.w3.org/2000/svg">
  <defs>
    <linearGradient id="bgOg" x1="0" y1="0" x2="1200" y2="630" gradientUnits="userSpaceOnUse">
      <stop offset="0" stop-color="#1B4A3B"/>
      <stop offset="1" stop-color="#0F241C"/>
    </linearGradient>
    <radialGradient id="glow" cx="85%" cy="15%" r="60%">
      <stop offset="0" stop-color="#C97B3D" stop-opacity="0.35"/>
      <stop offset="1" stop-color="#C97B3D" stop-opacity="0"/>
    </radialGradient>
  </defs>
  <rect width="1200" height="630" fill="url(#bgOg)"/>
  <rect width="1200" height="630" fill="url(#glow)"/>

  <g transform="translate(90,90)">
    <rect width="150" height="150" rx="34" fill="#0F241C" stroke="#2E7458" stroke-width="2"/>
    <path d="M75 34 L120 73 V115 C120 118 117.6 120.4 114.7 120.4 H39.3 C36.4 120.4 34 118 34 115 V73 Z" fill="#FBF9F6"/>
    <path d="M27 70 L75 31 L123 70" stroke="#FBF9F6" stroke-width="8.5" stroke-linecap="round" stroke-linejoin="round" fill="none"/>
    <rect x="64.5" y="85" width="21" height="34" rx="3" fill="#1B4A3B"/>
    <path d="M104 46 L109 56 L119 61 L109 66 L104 76 L99 66 L89 61 L99 56 Z" fill="#C97B3D"/>
  </g>

  <text x="90" y="300" font-family="'Poppins','Segoe UI',sans-serif" font-size="62" font-weight="700" fill="#FBF9F6">Mi Prop<tspan fill="#C97B3D">IA</tspan></text>
  <text x="90" y="352" font-family="'Segoe UI',sans-serif" font-size="30" font-weight="400" fill="#CFE3D9">Tu gestor inmobiliario experto en IA</text>

  <line x1="90" y1="400" x2="1110" y2="400" stroke="#2E7458" stroke-width="1.5"/>

  <text x="90" y="450" font-family="'Segoe UI',sans-serif" font-size="26" fill="#EDE6DA">Analiza contratos · calcula sellado y comisiones</text>
  <text x="90" y="488" font-family="'Segoe UI',sans-serif" font-size="26" fill="#EDE6DA">te avisa antes de que algo venza.</text>

  <text x="90" y="580" font-family="'Segoe UI',sans-serif" font-size="22" fill="#8FAE9F">labstudiopna.github.io/MiPropIA</text>
</svg>
